<svg viewBox="0 0 40 40" xmlns="http://www.w3.org/2000/svg" style="fill-rule:evenodd;clip-rule:evenodd;">
<path d="M14.658 40l.073-.14c.834.152 1.138-.804 1.138-1.245 0-.396-.014-4.444-.022-5.835-4.636 1.008-5.615-2.234-5.615-2.234-.758-1.925-1.85-2.438-1.85-2.438-1.514-1.034.114-1.013.114-1.013 1.673.118 2.553 1.717 2.553 1.717 1.487 2.548 3.901 1.812 4.851 1.385.151-1.077.582-1.812 1.058-2.228-3.701-.421-7.592-1.851-7.592-8.238 0-1.819.65-3.306 1.716-4.472-.172-.421-.744-2.116.163-4.411 0 0 1.399-.448 4.583 1.709a16.013 16.013 0 0 1 4.173-.561c1.416.007 2.841.192 4.172.561 3.182-2.157 4.579-1.709 4.579-1.709.909 2.295.337 3.99.166 4.411 1.068 1.166 1.713 2.653 1.713 4.472 0 6.403-3.897 7.812-7.609 8.225.597.514 1.13 1.531 1.13 3.086 0 2.229-.02 7.027-.02 7.573 0 .445.301 1.406 1.146 1.243.005.048.012.095.019.142H14.658z"/></svg>