<svg viewBox="0 0 40 40" xmlns="http://www.w3.org/2000/svg">
<path d="M18.099,25.704l0,-4.889l-0.679,0c-0.181,0 -0.34,-0.068 -0.475,-0.204c-0.136,-0.135 -0.204,-0.294 -0.204,-0.475l0,-1.629c0,-0.182 0.068,-0.34 0.204,-0.476c0.135,-0.136 0.294,-0.204 0.475,-0.204l3.803,0c0.18,0 0.338,0.068 0.474,0.204c0.136,0.136 0.204,0.294 0.204,0.476l0,7.197l0.679,0c0.181,0 0.34,0.068 0.475,0.204c0.136,0.136 0.204,0.295 0.204,0.475l0,1.63c0,0.182 -0.068,0.339 -0.204,0.475c-0.135,0.136 -0.294,0.204 -0.475,0.204l-5.16,0c-0.181,0 -0.34,-0.068 -0.475,-0.204c-0.136,-0.136 -0.204,-0.293 -0.204,-0.475l0,-1.63c0,-0.18 0.068,-0.339 0.204,-0.475c0.135,-0.136 0.294,-0.204 0.475,-0.204l0.679,0Zm1.901,-14.396c0.679,0 1.256,0.237 1.731,0.713c0.476,0.475 0.713,1.052 0.713,1.731c0,0.68 -0.237,1.257 -0.713,1.732c-0.475,0.476 -1.052,0.713 -1.731,0.713c-0.679,0 -1.256,-0.237 -1.731,-0.713c-0.476,-0.475 -0.713,-1.052 -0.713,-1.732c0,-0.679 0.237,-1.256 0.713,-1.731c0.475,-0.476 1.052,-0.713 1.731,-0.713Z"/></svg>