<?xml version="1.0" encoding="UTF-8" standalone="no"?>
<svg viewBox="0 0 40 40" xmlns="http://www.w3.org/2000/svg">
<path d="M26.08,11.683c0.293,-0.159 0.583,-0.142 0.865,0.05c0.283,0.192 0.402,0.459 0.356,0.798l-2.444,14.668c-0.045,0.249 -0.186,0.441 -0.424,0.577c-0.237,0.136 -0.469,0.147 -0.696,0.035l-4.244,-1.767l-2.138,2.615c-0.158,0.204 -0.356,0.305 -0.594,0.305c-0.237,0 -0.441,-0.073 -0.61,-0.22c-0.171,-0.148 -0.255,-0.357 -0.255,-0.628l0,-2.716l8.18,-9.983c0.068,-0.09 0.057,-0.176 -0.033,-0.254c-0.091,-0.08 -0.182,-0.086 -0.272,-0.018l-9.743,8.591l-3.597,-1.495c-0.318,-0.136 -0.487,-0.373 -0.51,-0.712c-0.022,-0.34 0.124,-0.589 0.442,-0.748l15.717,-9.098Z"/></svg>