<svg viewBox="0 0 159 159" xmlns="http://www.w3.org/2000/svg" style="fill-rule:evenodd;clip-rule:evenodd;">
<path d="M2.4 102.5c3.33.15 6.65.3 9.98.3 7.37.01 14.75 0 22.11-.38a618.7 618.7 0 0 0 25.62-2c2.6-.25 5.14-1.04 8.1-1.67-.68-.63-1.03-.96-1.4-1.28-5.26-4.53-10.75-8.83-15.74-13.65-7.72-7.45-13.94-16.1-17.35-26.37-5.28-15.86-1.97-30.02 9.45-42.19C50.54 7.41 59.84 3.5 70.5 2.64c6.5-.52 12.96-.28 19.23 1.7C98 6.94 104.6 12 109.97 18.7c4.32 5.4 7.88 11.28 9.6 18.05 1.94 7.68.93 15.23-1.72 22.6-4.1 11.38-11.26 20.66-20.17 28.68a87.82 87.82 0 0 1-15.8 11.25c-.3.16-.56.35-.86.53 1.76 1.71 3.44 3.38 5.18 4.99.2.18.73.14 1.05.03 10-3.28 20.33-4.73 30.8-4.9 12.65-.2 25.3-.29 37.95-.14v6.6c-7.48-.32-14.96-.54-22.45-.35-7.5.19-15.01.19-22.5.52a70.47 70.47 0 0 0-18.1 3.1c-.49.15-.95.34-1.62.59.61.68 1.13 1.27 1.67 1.85 5.08 5.56 9.35 11.63 11.92 18.77 1.03 2.86 1.72 5.82 1.52 8.89-.32 4.7-2.85 8.24-6.38 11.08A22.86 22.86 0 0 1 88.3 156h-5a26.8 26.8 0 0 1-6.7-1.69c-8.22-3.17-12.85-9.52-14.36-18.04-1.08-6.03.89-11.45 4.42-16.33 3.13-4.34 7.12-7.8 11.47-10.86l1.15-.84c-1.87-1.63-3.64-3.21-5.47-4.72-.24-.2-.81-.18-1.16-.05a87.83 87.83 0 0 1-19.58 4.7 209 209 0 0 1-16.3 1.35c-9.12.34-18.25.5-27.37.52-2.33 0-4.66-.07-7-.17v-7.37zm80.38 47.1c3.99-.16 7.84-.72 11.4-2.59 4.12-2.16 6.39-5.49 5.8-10.27a19.8 19.8 0 0 0-1.4-5.4c-2.93-6.88-7.95-12.23-13.16-17.42-.24-.24-.99-.29-1.3-.1-1.4.88-2.82 1.77-4.07 2.85-5.7 4.9-9.96 10.72-11.47 18.25-1.35 6.73 2.13 12.31 8.78 13.95 1.76.44 3.6.5 5.42.74zm31.9-105.88c.05-3.82-.75-7.44-2.54-10.83-4.28-8.16-10.48-14.56-18.07-19.67-6.84-4.6-14.23-6.76-22.54-5.3-9.9 1.73-18.65 5.75-25.5 13.22-6.15 6.68-9.37 14.56-7.98 23.77 1.26 8.3 4.71 15.9 9.3 22.8 7.16 10.81 16.8 19.33 27.01 27.2.59.45 1.05.54 1.72.16 14-7.95 25.57-18.41 33.32-32.72 3.14-5.8 5.2-11.94 5.27-18.63z"/></svg>