<svg viewBox="0 0 660 660" xmlns="http://www.w3.org/2000/svg" style="fill-rule:evenodd;clip-rule:evenodd">
<path d="M330 10c176.61 0 320 143.39 320 320S506.61 650 330 650 10 506.61 10 330 153.39 10 330 10zm0 10c171.1 0 310 138.9 310 310S501.1 640 330 640 20 501.1 20 330 158.9 20 330 20z"/><path d="M433.98 206.96c58.13 0 68.12 61.98 68.12 123.04 0 61.06-9.74 123.04-68.12 123.04-58.39 0-68.12-63.02-68.12-123.04s9.98-123.04 68.12-123.04zm0 9.77c49.77 0 58.32 57.06 58.32 113.27 0 56.21-8.33 113.27-58.32 113.27-50 0-58.33-58.02-58.33-113.27 0-55.25 8.55-113.27 58.33-113.27z"/><path d="M433.98 181c88.3 0 160 66.76 160 149s-71.7 149-160 149c-88.31 0-160-66.76-160-149s71.69-149 160-149zm0 9.98c82.78 0 150 62.59 150 139.68 0 77.1-67.22 139.7-150 139.7-82.8 0-150-62.6-150-139.7s67.2-139.68 150-139.68z"/><path d="M89.02 459h189.96v10H89.02v-10zm0-248h9.96v.09h.11c24.23 0 43.9 19.8 43.9 44.19v149.44c0 24.4-19.67 44.2-43.9 44.2h-.11v.08h-9.96v-9.15l9.73-1c18.9 0 34.24-15.45 34.24-34.47V255.62c0-19.02-15.34-34.47-34.24-34.47l-9.73-1V211zm189.96 0v9.15l-9.74 1c-18.9 0-34.23 15.45-34.23 34.47v148.76c0 19.02 15.34 34.47 34.24 34.47l9.73 1V449h-9.96v-.09h-.12c-24.22 0-43.9-19.8-43.9-44.19V255.28c0-24.4 19.68-44.2 43.9-44.2h.12V211h9.96zm0-10H89.02v-10h189.96v10z"/></svg>