<svg viewBox="0 0 50 50" xmlns="http://www.w3.org/2000/svg" style="fill-rule:evenodd;clip-rule:evenodd;"><path d="M3.52 29.5l.15.64a.75.75 0 0 1-.86.92.75.75 0 0 1-.6-.56l-.13-.62A23.26 23.26 0 0 1 31.61 2.52a.75.75 0 0 1-.47 1.42l-.48-.14A21.77 21.77 0 0 0 3.52 29.5zm39.7 9.36l-.24.34a.75.75 0 0 1-1.22-.86A21.72 21.72 0 0 0 36.7 6.56l-.55-.29a.75.75 0 0 1 .68-1.33l.43.21a23.2 23.2 0 0 1 5.96 33.7zm-4.44 4.42l-.3.24a23.27 23.27 0 0 1-33.9-7.22l-.23-.4a.75.75 0 0 1 1.27-.8c.11.18.32.59.32.59a21.78 21.78 0 0 0 31.43 6.8l.45-.37a.75.75 0 0 1 .96 1.15z"/><path d="M7.82 16.25l.18-.3a.75.75 0 1 1 1.3.76c-.1.15-.23.47-.23.47a17.41 17.41 0 0 0 18.3 24.78s.41-.02.65-.08a.75.75 0 0 1 .35 1.46l-.45.08a18.94 18.94 0 0 1-20.1-27.17zm18.3-8.85s-.43-.07-.7-.07a.75.75 0 0 1 0-1.5l.5.02c4.75.3 9.03 2.34 12.2 5.5l.24.33c.06.07.12.13.16.21a.75.75 0 0 1-1.32.7 17.35 17.35 0 0 0-11.08-5.2zm-6.9-.76l.32-.08a.75.75 0 0 1 .59 1.38l-.73.24c-2.34.75-2.95-.7-.19-1.54zm-.56 17.23s-.44-.17-.55-.23a.75.75 0 0 1 .6-1.37 26.96 26.96 0 0 0 3.68 1.18c1.07.26 2.55.53 3.65.74 1.08.22 2.68.46 3.89.78.84.23 2.11.6 3.1 1.1a8.26 8.26 0 0 1 4.5 5.5c1.11 3.62-.5 7.42-3.48 9.58l-.52.37a.83.83 0 0 1-.4.13.75.75 0 0 1-.44-1.35c.12-.1.4-.28.4-.28a7.66 7.66 0 0 0 3.26-6.25c0-.32 0-1.68-.78-3.19a7.39 7.39 0 0 0-1.8-2.32 8.58 8.58 0 0 0-3.15-1.56c-1.12-.3-2.65-.59-4.3-.9-1.66-.31-3.7-.66-5.15-1.08a17.62 17.62 0 0 1-2.51-.85zm23.84 7.47c-.3.75-.58 1.08-1.3.8-.47-.18-.29-.92-.15-1.3a17.35 17.35 0 0 0-.35-13.04l-.27-.54a.75.75 0 0 1 1.33-.7c.07.14.22.34.22.34 1.1 2.39 1.7 5.05 1.7 7.85a18 18 0 0 1-1.18 6.59zm-4.7-5.92l-.6-.52c-.35-.3-.99-.81-1.88-1.35a17.24 17.24 0 0 0-4.74-1.87 113.1 113.1 0 0 0-8.3-1.73c-1.53-.27-2.81-.8-3.63-1.79a4.12 4.12 0 0 1-1.06-2.77c0-.8.27-1.8 1.1-2.69a6.61 6.61 0 0 1 2.46-1.5 9.94 9.94 0 0 1 3.22-.62c1.86-.01 3.66.38 4.8.77a13.4 13.4 0 0 1 3.54 1.83c-.04.04.23.2.36.3a.75.75 0 0 1-.82 1.25c-.15-.08-.4-.25-.4-.25a15.56 15.56 0 0 0-3.57-1.68 14.27 14.27 0 0 0-4.25-.6c-1.85.03-2.88.46-3.68 1.11a2.67 2.67 0 0 0-1.12 2.24c0 .86.36 1.39.8 1.78.66.59 1.17.8 2.77 1.12 1.59.32 3.38.6 4.8.9 1.41.3 3.78.87 5 1.28a17.51 17.51 0 0 1 5.17 2.7c.62.5.88.8 1.04.98.12.15.21.32.21.52a.75.75 0 0 1-1.22.59z"/><path d="M19.1 6.65c.1-.03.56-.18.72-.18a.75.75 0 0 1 .3 1.44l-.5.18a8.1 8.1 0 0 0-4.52 4.4 8.1 8.1 0 0 0-.18 6.22l.17.39c.03.09.05.19.05.29a.75.75 0 0 1-1.46.22 9.2 9.2 0 0 1-.12-7.8 9.18 9.18 0 0 1 5.54-5.16zm21.76 24.88a10.05 10.05 0 0 0-1.4-3.98 16.6 16.6 0 0 0-1.74-2.23c-.32-.33.04-.62.23-.82.3-.3.66-.37.88-.16a12.88 12.88 0 0 1 3.08 5.02c.21.69.45 1.45.45 2.17a.75.75 0 0 1-1.5 0zm-22.85 3.9a14.57 14.57 0 0 0 7.22 1.86c1.85-.01 3.66-.25 5-1.22a2.72 2.72 0 0 0 1.15-2.27c0-.87-.51-1.46-.98-1.8a9.47 9.47 0 0 0-3.3-1.19c-1.59-.32-2.9-.48-4.32-.78-1.42-.3-4.2-.99-5.5-1.46a17.65 17.65 0 0 1-3.57-1.77c-.9-.57-1.42-1.05-1.9-1.5-.57-.54-.73-.88-.86-1.1-.1-.17-.22-.4-.22-.61a.75.75 0 0 1 1.22-.59c.1.09.39.46.61.75.37.47.97 1.07 1.82 1.68.48.35 1.41.9 2.57 1.4.85.36 1.99.7 3.02.97 2.45.64 4.82.98 7.73 1.58 1.77.37 3.45.81 4.27 1.8a3.85 3.85 0 0 1 1.05 2.77c.03.8-.26 1.8-1.1 2.69a7.84 7.84 0 0 1-2.72 1.53 14.36 14.36 0 0 1-8.91-.01 16.46 16.46 0 0 1-3.83-1.96c-.84-.63-1.23-.9-2.04-1.75a7.46 7.46 0 0 1-1.57-2.08l-.25-.43a.75.75 0 0 1 1.3-.75l.25.34s.54.88 1.44 1.88c.98 1.07 1.56 1.44 2.42 2.02z"/><path d="M28.15 41.88c-.6.16-.72.52-.63.88.09.35.32.64 1.1.53.7-.1 1.57-.32 2.36-.6a18.3 18.3 0 0 0 2.24-1c.38-.2.55-.57.38-.95a.77.77 0 0 0-1.02-.4 12.76 12.76 0 0 1-4.43 1.54zm-2.2-34.52c.7.07.42-.3.41-.7 0-.38.83-.66-.06-.77a17.04 17.04 0 0 0-3.72.01c-1.13.1-2.33.3-3.39.7-.44.17-.25.32-.17.76.08.44.4.72.86.63 1.17-.39 2.11-.52 3.1-.6 1.1-.1 1.76-.13 2.97-.03z"/></svg>