<svg viewBox="0 0 40 40" xmlns="http://www.w3.org/2000/svg">
<path d="M13,20.007c0,0.824 0.669,1.493 1.493,1.493l13.014,0c0.824,0 1.493,-0.669 1.493,-1.493l0,-0.014c0,-0.824 -0.669,-1.493 -1.493,-1.493l-13.014,0c-0.824,0 -1.493,0.669 -1.493,1.493l0,0.014Z"/><path d="M11,14.007c0,0.824 0.669,1.493 1.493,1.493l15.014,0c0.824,0 1.493,-0.669 1.493,-1.493l0,-0.014c0,-0.824 -0.669,-1.493 -1.493,-1.493l-15.014,0c-0.824,0 -1.493,0.669 -1.493,1.493l0,0.014Z"/><path d="M18,26.007c0,0.824 0.669,1.493 1.493,1.493l8.014,0c0.824,0 1.493,-0.669 1.493,-1.493l0,-0.014c0,-0.824 -0.669,-1.493 -1.493,-1.493l-8.014,0c-0.824,0 -1.493,0.669 -1.493,1.493l0,0.014Z"/></svg>