<svg viewBox="0 0 40 40" xmlns="http://www.w3.org/2000/svg" style="fill-rule:nonzero;clip-rule:evenodd;">
<path d="M15.9 29c8.35 0 12.92-6.92 12.92-12.93l-.01-.59a9.24 9.24 0 0 0 2.26-2.35c-.81.36-1.69.6-2.6.72a4.56 4.56 0 0 0 2-2.52 9.1 9.1 0 0 1-2.9 1.1 4.54 4.54 0 0 0-7.74 4.15 12.9 12.9 0 0 1-9.36-4.75 4.53 4.53 0 0 0 1.4 6.07 4.51 4.51 0 0 1-2.05-.57v.06c0 2.2 1.56 4.04 3.64 4.45a4.56 4.56 0 0 1-2.05.08 4.55 4.55 0 0 0 4.24 3.16 9.12 9.12 0 0 1-6.72 1.88A12.86 12.86 0 0 0 15.89 29z"/></svg>