<svg viewBox="0 0 40 40" xmlns="http://www.w3.org/2000/svg" style="fill-rule:nonzero;clip-rule:evenodd;clip-rule:evenodd;">
<path d="M15.16 24.33c.3 0 .57-.02.83-.08.27-.06.5-.15.7-.29.2-.13.37-.3.5-.54.11-.22.17-.52.17-.87 0-.7-.2-1.2-.59-1.5-.39-.3-.91-.44-1.55-.44h-3.24v3.72h3.18zM15 18.57c.52 0 .96-.12 1.3-.38.35-.25.51-.66.51-1.23 0-.31-.05-.57-.16-.77a1.3 1.3 0 0 0-.46-.47c-.2-.12-.4-.2-.66-.24-.24-.05-.5-.07-.76-.07h-2.79v3.16H15zm.38-5.46c.65 0 1.23.05 1.77.17.53.11.98.3 1.36.56.38.26.67.6.89 1.03.2.42.3.96.3 1.59 0 .68-.15 1.25-.46 1.7-.31.46-.77.83-1.38 1.12.83.24 1.45.66 1.86 1.26.41.6.61 1.32.61 2.17a3.45 3.45 0 0 1-1.46 3 4.7 4.7 0 0 1-1.54.7c-.57.15-1.16.23-1.77.23H9V13.1h6.38zm12.29 6.03c-.32-.35-.86-.54-1.52-.54-.43 0-.79.07-1.07.22a1.93 1.93 0 0 0-1.04 1.23 2.8 2.8 0 0 0-.13.64h4.38a2.6 2.6 0 0 0-.62-1.55zm-3.1 5.15c.41.4 1 .6 1.75.6a2.4 2.4 0 0 0 1.4-.42c.4-.27.63-.57.72-.87h2.37a4.5 4.5 0 0 1-1.74 2.53c-.78.5-1.73.76-2.84.76-.77 0-1.47-.12-2.1-.37a4.45 4.45 0 0 1-2.57-2.68 5.98 5.98 0 0 1 .01-4.14 4.8 4.8 0 0 1 4.66-3.14c.83 0 1.55.16 2.18.49.62.32 1.12.75 1.52 1.3.4.54.69 1.16.87 1.86.17.7.23 1.42.18 2.18h-7.07c0 .77.26 1.5.67 1.9zm-1.21-10.28h5.49v1.34h-5.49z"/></svg>