<?xml version="1.0" encoding="UTF-8" standalone="no"?>
<svg viewBox="0 0 66 66" xmlns="http://www.w3.org/2000/svg" style="fill-rule:evenodd;clip-rule:evenodd">
<path d="M33 3a30 30 0 1 1 0 60 30 30 0 0 1 0-60zm0 2.2a27.8 27.8 0 1 1 0 55.6 27.8 27.8 0 0 1 0-55.6z"/>
<path d="M48.5 47.4h-31a3 3 0 0 1-2.9-3V24.8a3 3 0 0 1 3-2.9h4.8v-2.4a4 4 0 0 1 4-3.9h13.3a4 4 0 0 1 3.9 4v2.3h4.9a3 3 0 0 1 2.9 3v19.7a3 3 0 0 1-3 2.9zM18 24c-.7 0-1.3.6-1.3 1.3V44c0 .7.6 1.3 1.3 1.3H48c.7 0 1.3-.6 1.3-1.3V25.3c0-.7-.6-1.3-1.3-1.3h-6.3v-4.6c0-1-.8-1.7-1.7-1.7H26.3c-1 0-1.7.8-1.7 1.7V24h-6.5z"/>
<path d="M38.4 20.7c0-.3-.2-.5-.5-.5h-9.6c-.3 0-.5.2-.5.5V24h10.6v-3.3zM34.3 29.2c.3 0 .5.2.5.5V33H38c.3 0 .5.2.5.5v2.4c0 .3-.2.5-.5.5h-3.2v3.2c0 .3-.2.5-.5.5h-2.4a.5.5 0 0 1-.5-.5v-3.2h-3.2a.5.5 0 0 1-.5-.5v-2.4c0-.3.2-.5.5-.5h3.2v-3.2c0-.3.2-.5.5-.5h2.4z"/></svg>