<?xml version="1.0" encoding="UTF-8" standalone="no"?>
<svg viewBox="0 0 66 66" xmlns="http://www.w3.org/2000/svg" style="fill-rule:evenodd;clip-rule:evenodd;">
<path d="M33.6 8.6c1.5 4.6-.7 8.5-1.4 12.7-.6 3.8 3.4 3.8 5.5 3.3 2-.6 2.9-5.2 4.5-7.8a9 9 0 0 1 7.5-4.6 9 9 0 0 1 8.5 5.7c.7 2 .9 3.8.8 5.7 0 2.2-.6 4.3-1.5 5.6-1.7 2.3-5 2.8-8.2 3.2-2.1.3-6.5 1.5-6.4 2.9 0 1.3 2.7 2 5 2.5a33 33 0 0 1 11.7 3.8c2.9 2 5 5.4 4.9 10.6-.1 5.2-3.3 7-5.5 7.8-1.7.6-3.5.4-5.5-.2-1.9-.5-3.6-1.6-5.6-3.3-2-1.8-3.8-5-5.1-6.6-1.8-2.2-4.6-4.3-5.8-3.5-.6.4-.7 1.6-.2 3 .4 1.4 1.3 3 1.7 4.2.9 2.4 1.2 4.4.3 6-1.1 2.1-3.5 3-6 3.2-2.2.1-5 0-6.4-1-1.8-1-2.5-2.2-3.2-4.3-.7-2-.8-4.5-1.4-6.6-.4-1.6-1-2.4-1.8-2.4-.4-.1-1 .1-1.8.8L14.7 52c-1.4 1-2.8 2-5 2.2-1.5.1-3-.2-4-.7-1-.4-3-1.4-4.2-4.4a8.8 8.8 0 0 1-.2-6c.7-2 2-3.1 3.3-4a10 10 0 0 1 4.2-1c1-.2 3 0 3.8.2.9.1 3.2 0 3.3-1 0-1.2-1-2-2-2.9-.5-.5-2.5-1.6-5-3-2.2-1.3-5.5-4.4-5.8-8-.3-2.4.9-4.4 2.3-5.9 1.5-1.4 4-2.9 6.4-2.2 2 .5 2.8 1.6 3.7 2.6 1.8 2 2.5 5.8 3.7 7.4 1.1 1.4 2 1.6 2.9 1.5 1-.2 2-.7 2.4-1.6.3-.7-.2-1.8-1-2.7l-4-4.4c-2-2.6-4-6-2.9-9.8 1-3.2 4-4.5 5.3-5 1.6-.6 5.1-1.3 7.4-.1 2 1 3.2 2.1 4.3 5.4zm-2 .4c1.6 4.4-1.2 8.9-1.5 12.7 0 1.8.7 3.2 2 4.1 1.2.9 2.7 1.2 3.6 1.1 1.7 0 3.9-.3 5.4-2.7.8-1.3 1.4-3.8 2.7-6 1.2-2 3-3.3 4.3-3.7a7 7 0 0 1 8.1 4.1c.7 1.8.8 3 .8 4.7-.1 2-.3 3.7-1.3 4.8-1.8 2.1-5.7 2-8.3 2.5-1 .3-3.7 1-5.1 2-1.3 1-1.5 2-1.5 2.6 0 .6.3 1.8 1.3 2.6 1.1 1 3.1 1.6 4.3 1.8 2 .3 7.2 1 10.6 2.9 2.9 1.6 5 3.5 5.4 8.3.4 4.2-1.5 6.3-3.5 7-1.5.7-3.5.6-5.5-.1a14 14 0 0 1-5.4-4c-1.7-2.3-3.5-5.2-5.2-6.8-2.5-2.3-5-3.4-6.6-2.4a3.6 3.6 0 0 0-1.7 3.5c.1 1.2.5 3 1.4 4.7a10 10 0 0 1 1.3 5c0 1.6-2 2.8-4.3 3-2 .1-4.8.2-6-1a7.1 7.1 0 0 1-2.2-4.2c-.5-2.5-.5-4.5-1.3-6.4-1-2.2-2.4-2.6-3-2.7-.5 0-1.9 0-2.7.7l-2.8 2c-1.3 1-2 2.2-4 2.8a6 6 0 0 1-3.2.1 5.8 5.8 0 0 1-4.1-3.2c-.8-2-.9-3.3-.5-4.8.6-2 2.2-3 3.5-3.5a11 11 0 0 1 3.7-.4l3 .3c1 0 4.4-.2 4.6-3.2 0-1-.5-2.6-2.4-4.2a78 78 0 0 0-5.6-3.4c-2-1.2-4.6-4-4.7-5.8-.3-2.3.6-4 2.1-5.2C8.6 17.5 10 17 11 17.2c2 .3 3.3 2.3 4 3.7.6 1.3 1 3 1.8 4.4A8 8 0 0 0 19 28a5 5 0 0 0 3.3 1c1-.2 3.4-1 4.2-3.4.3-.7 0-2.5-.8-3.5l-3.1-3.6a21.6 21.6 0 0 1-3.3-4.4 7 7 0 0 1-.8-5.1c.7-2.2 3-3.3 4.3-3.7 1.5-.5 3.6-1 5.2-.3 1.9.8 2.6 1.4 3.6 4.1z"/></svg>